# xmcd
# 
# Track frame offsets:
#     225
#     14578
#     31696
#     44432
#     58509
#     73450
#     89248
#     101362
# 
# Disc length: 1487
# 
# Revision: 0
# Processed by: cddbd v1.5.2PL0 Copyright (c) Steve Scherf et al.
# Submitted via: fre:ac v1.0.31
# 
DISCID=6e05cc08
DTITLE=Bobby Hutchinson - Let It Go
DYEAR=1996
DGENRE=Country
TTITLE0=Will It Ever Change
TTITLE1=Let It Go
TTITLE2=We'll Get Along
TTITLE3=Mississippi Dream
TTITLE4=Baby Boy Blues
TTITLE5=Miracle Maker
TTITLE6=Phantom Of Love
TTITLE7=The Best For You And Me
EXTD=
EXTT0=
EXTT1=
EXTT2=
EXTT3=
EXTT4=
EXTT5=
EXTT6=
EXTT7=
PLAYORDER=
